<?xml version="1.0" encoding="UTF-8" standalone="no"?>
<!DOCTYPE svg PUBLIC "-//W3C//DTD SVG 1.1//EN"
 "http://www.w3.org/Graphics/SVG/1.1/DTD/svg11.dtd">
<!-- Generated by graphviz version 5.0.0 (20220707.1540)
 -->
<!-- Pages: 1 -->
<svg width="161pt" height="502pt"
 viewBox="0.00 0.00 161.15 501.89" xmlns="http://www.w3.org/2000/svg" xmlns:xlink="http://www.w3.org/1999/xlink">
<g id="graph0" class="graph" transform="scale(1 1) rotate(0) translate(4 497.89)">
<polygon fill="white" stroke="transparent" points="-4,4 -4,-497.89 157.15,-497.89 157.15,4 -4,4"/>
<!-- fake -->
<g id="node1" class="node">
<title>fake</title>
</g>
<!-- q0 -->
<g id="node2" class="node">
<title>q0</title>
<ellipse fill="none" stroke="black" cx="110.15" cy="-396.74" rx="20.27" ry="20.27"/>
<ellipse fill="none" stroke="black" cx="110.15" cy="-396.74" rx="24.3" ry="24.3"/>
<text text-anchor="middle" x="110.15" y="-393.04" font-family="Times New Roman,serif" font-size="14.00">q0</text>
</g>
<!-- fake&#45;&gt;q0 -->
<g id="edge1" class="edge">
<title>fake&#45;&gt;q0</title>
<path fill="none" stroke="black" stroke-width="2" d="M110.15,-457.77C110.15,-449.9 110.15,-440.28 110.15,-431.07"/>
<polygon fill="black" stroke="black" stroke-width="2" points="113.65,-430.96 110.15,-420.96 106.65,-430.96 113.65,-430.96"/>
</g>
<!-- q4 -->
<g id="node4" class="node">
<title>q4</title>
<ellipse fill="none" stroke="black" cx="24.15" cy="-297.44" rx="20.27" ry="20.27"/>
<ellipse fill="none" stroke="black" cx="24.15" cy="-297.44" rx="24.3" ry="24.3"/>
<text text-anchor="middle" x="24.15" y="-293.74" font-family="Times New Roman,serif" font-size="14.00">q4</text>
</g>
<!-- q0&#45;&gt;q4 -->
<g id="edge6" class="edge">
<title>q0&#45;&gt;q4</title>
<path fill="none" stroke="black" d="M94.37,-377.9C81.04,-362.81 61.77,-341.01 46.79,-324.06"/>
<polygon fill="black" stroke="black" points="49.07,-321.35 39.82,-316.18 43.82,-325.99 49.07,-321.35"/>
<text text-anchor="middle" x="77.15" y="-343.39" font-family="Times New Roman,serif" font-size="14.00">d</text>
</g>
<!-- q3 -->
<g id="node5" class="node">
<title>q3</title>
<ellipse fill="none" stroke="black" cx="57.15" cy="-204.3" rx="27" ry="18"/>
<text text-anchor="middle" x="57.15" y="-200.6" font-family="Times New Roman,serif" font-size="14.00">q3</text>
</g>
<!-- q0&#45;&gt;q3 -->
<g id="edge9" class="edge">
<title>q0&#45;&gt;q3</title>
<path fill="none" stroke="black" d="M106.16,-372.92C101.59,-348.13 93.4,-307.49 83.15,-273.3 78.91,-259.16 73.13,-243.77 68.09,-231.21"/>
<polygon fill="black" stroke="black" points="71.28,-229.76 64.26,-221.83 64.8,-232.41 71.28,-229.76"/>
<text text-anchor="middle" x="98.65" y="-293.74" font-family="Times New Roman,serif" font-size="14.00">c</text>
</g>
<!-- q1 -->
<g id="node6" class="node">
<title>q1</title>
<ellipse fill="none" stroke="black" cx="119.15" cy="-18" rx="27" ry="18"/>
<text text-anchor="middle" x="119.15" y="-14.3" font-family="Times New Roman,serif" font-size="14.00">q1</text>
</g>
<!-- q0&#45;&gt;q1 -->
<g id="edge2" class="edge">
<title>q0&#45;&gt;q1</title>
<path fill="none" stroke="black" d="M122,-375.62C132.15,-356.45 145.15,-326.45 145.15,-298.44 145.15,-298.44 145.15,-298.44 145.15,-110.15 145.15,-87.48 137.62,-62.82 130.67,-44.87"/>
<polygon fill="black" stroke="black" points="133.82,-43.34 126.81,-35.4 127.34,-45.98 133.82,-43.34"/>
<text text-anchor="middle" x="149.15" y="-200.6" font-family="Times New Roman,serif" font-size="14.00">b</text>
</g>
<!-- q2 -->
<g id="node3" class="node">
<title>q2</title>
<ellipse fill="none" stroke="black" cx="88.15" cy="-111.15" rx="20.27" ry="20.27"/>
<ellipse fill="none" stroke="black" cx="88.15" cy="-111.15" rx="24.3" ry="24.3"/>
<text text-anchor="middle" x="88.15" y="-107.45" font-family="Times New Roman,serif" font-size="14.00">q2</text>
</g>
<!-- q2&#45;&gt;q3 -->
<g id="edge11" class="edge">
<title>q2&#45;&gt;q3</title>
<path fill="none" stroke="black" d="M80.63,-134.26C76.26,-147.1 70.73,-163.37 66.13,-176.88"/>
<polygon fill="black" stroke="black" points="62.74,-175.98 62.83,-186.58 69.37,-178.24 62.74,-175.98"/>
<text text-anchor="middle" x="77.65" y="-157.1" font-family="Times New Roman,serif" font-size="14.00">c</text>
</g>
<!-- q2&#45;&gt;q1 -->
<g id="edge4" class="edge">
<title>q2&#45;&gt;q1</title>
<path fill="none" stroke="black" d="M85.66,-87.08C85.36,-76.66 86.19,-64.39 90.15,-54 91.92,-49.36 94.57,-44.88 97.56,-40.77"/>
<polygon fill="black" stroke="black" points="100.37,-42.87 104.01,-32.92 94.96,-38.42 100.37,-42.87"/>
<text text-anchor="middle" x="94.15" y="-57.8" font-family="Times New Roman,serif" font-size="14.00">b</text>
</g>
<!-- q4&#45;&gt;q4 -->
<g id="edge5" class="edge">
<title>q4&#45;&gt;q4</title>
<path fill="none" stroke="black" d="M46.7,-306.27C57.16,-307.23 66.3,-304.29 66.3,-297.44 66.3,-292.95 62.36,-290.14 56.7,-289.01"/>
<polygon fill="black" stroke="black" points="56.83,-285.52 46.7,-288.62 56.55,-292.51 56.83,-285.52"/>
<text text-anchor="middle" x="70.3" y="-293.74" font-family="Times New Roman,serif" font-size="14.00">d</text>
</g>
<!-- q4&#45;&gt;q3 -->
<g id="edge7" class="edge">
<title>q4&#45;&gt;q3</title>
<path fill="none" stroke="black" d="M32.14,-274.38C36.79,-261.53 42.68,-245.25 47.58,-231.72"/>
<polygon fill="black" stroke="black" points="50.98,-232.61 51.09,-222.02 44.4,-230.23 50.98,-232.61"/>
<text text-anchor="middle" x="47.65" y="-244.1" font-family="Times New Roman,serif" font-size="14.00">c</text>
</g>
<!-- q3&#45;&gt;q2 -->
<g id="edge8" class="edge">
<title>q3&#45;&gt;q2</title>
<path fill="none" stroke="black" d="M55.47,-186.19C55.08,-176.33 55.58,-163.83 59.15,-153.3 60.94,-148.02 63.63,-142.82 66.68,-137.99"/>
<polygon fill="black" stroke="black" points="69.57,-139.95 72.4,-129.74 63.82,-135.96 69.57,-139.95"/>
<text text-anchor="middle" x="63.15" y="-157.1" font-family="Times New Roman,serif" font-size="14.00">d</text>
</g>
<!-- q3&#45;&gt;q3 -->
<g id="edge10" class="edge">
<title>q3&#45;&gt;q3</title>
<path fill="none" stroke="black" d="M81.68,-212.05C92.66,-212.79 102.15,-210.2 102.15,-204.3 102.15,-200.33 97.86,-197.86 91.72,-196.89"/>
<polygon fill="black" stroke="black" points="91.8,-193.39 81.68,-196.54 91.55,-200.39 91.8,-193.39"/>
<text text-anchor="middle" x="105.65" y="-200.6" font-family="Times New Roman,serif" font-size="14.00">c</text>
</g>
<!-- q1&#45;&gt;q2 -->
<g id="edge3" class="edge">
<title>q1&#45;&gt;q2</title>
<path fill="none" stroke="black" d="M113.46,-35.72C109.4,-47.68 103.8,-64.13 98.9,-78.53"/>
<polygon fill="black" stroke="black" points="95.56,-77.49 95.65,-88.08 102.19,-79.74 95.56,-77.49"/>
<text text-anchor="middle" x="109.65" y="-57.8" font-family="Times New Roman,serif" font-size="14.00">a</text>
</g>
</g>
</svg>
